<?xml version="1.0" encoding="utf-8"?>
<!-- Generator: Adobe Illustrator 16.0.0, SVG Export Plug-In . SVG Version: 6.00 Build 0)  -->
<!DOCTYPE svg PUBLIC "-//W3C//DTD SVG 1.1//EN" "http://www.w3.org/Graphics/SVG/1.1/DTD/svg11.dtd">
<svg version="1.1" id="Layer_1" xmlns="http://www.w3.org/2000/svg" xmlns:xlink="http://www.w3.org/1999/xlink" x="0px" y="0px"
	 width="345.654px" height="152.909px" viewBox="0 0 345.654 152.909" enable-background="new 0 0 345.654 152.909"
	 xml:space="preserve">
<g>
	<path fill="none" stroke="#58595B" stroke-width="3" stroke-miterlimit="10" d="M82.978,125.725c0,1.559-1.226,3.188-2.723,3.621
		L4.223,151.302c-1.498,0.433-2.723-0.489-2.723-2.048V27.864c0-1.559,1.226-3.188,2.723-3.621L80.254,2.287
		c1.498-0.433,2.723,0.489,2.723,2.048V125.725z"/>
</g>
<g>
	<path fill="none" stroke="#58595B" stroke-width="3" stroke-miterlimit="10" d="M262.677,125.724c0,1.559-1.275,2.834-2.835,2.834
		H85.812c-1.559,0-2.834-1.275-2.834-2.834V4.334c0-1.559,1.275-2.834,2.834-2.834h174.03c1.56,0,2.835,1.275,2.835,2.834V125.724z"
		/>
</g>
<g>
	<path fill="none" stroke="#58595B" stroke-width="3" stroke-miterlimit="10" d="M344.154,149.253c0,1.559-1.226,2.48-2.724,2.048
		l-76.03-21.957c-1.498-0.433-2.724-2.062-2.724-3.621V4.335c0-1.559,1.226-2.48,2.724-2.048l76.03,21.957
		c1.498,0.433,2.724,2.062,2.724,3.621V149.253z"/>
</g>
</svg>
